<svg xmlns="http://www.w3.org/2000/svg" xmlns:xlink="http://www.w3.org/1999/xlink" xmlns:svgjs="http://svgjs.com/svgjs" width="512" height="512" x="0" y="0" viewBox="0 0 202.319 202.319" style="enable-background:new 0 0 512 512" xml:space="preserve" class=""><g>
<g xmlns="http://www.w3.org/2000/svg">
	<path d="M25.801,119.558C9.284,87.932,7.014,61.301,7.312,47.222c0.26-11.748,1.67-12.735,3.479-13.977   c12.59-8.502,28.52-14.762,46.539-18.689c-0.047,0.31-0.083,0.647-0.127,0.919c-2.668,3.101-5.32,8.488-7.412,13.494   c-11.375,3.26-21.598,7.539-30.003,12.847c-0.662,6.774-1.593,30.414,11.765,61.197c-1.206,1.626-1.726,3.299-1.779,4.48   C28.993,112.671,27.273,116.779,25.801,119.558z M41.757,122.861c-0.576-0.958-1.12-1.892-1.652-2.86   c-2.258,3.227-3.922,8.512-4.389,16.373c0.272,0.396,0.567,0.815,0.842,1.217l0.629,0.201c0,0,0.792,1.412,0.984,1.809   c-0.428-2.441-0.216-5.828,2.175-9.836C40.614,128.808,41.358,126.006,41.757,122.861z M192.189,33.769   c-15.888-14.511-51.11-23.892-89.749-23.892c-0.085,0-0.156,0.006-0.254,0.006c3.996,1.865,8.057,4.492,11.934,8.219l4.664,4.492   c27.461,2.033,51.637,9.011,63.683,18.775c0.52,5.222,1.406,23.055-6.378,47.245c-11.78-5.645-25.611-5.777-25.611-5.777   c-17.537-0.849-19.222-5.503-19.222-5.503c2.725-22.812-12.259-35.929-12.259-35.929c2.11-0.618,8.866,3.818,8.866,3.818   C124.062,31.28,103.15,19.44,103.15,19.44c2.322-0.842,8.872,0.854,8.872,0.854C94.892,3.812,73.986,9.937,73.986,9.937   C73.356,6.343,62.995,0,62.995,0c1.073,1.053,1.49,6.765,1.49,6.765c-1.064-1.906-4.448-3.818-4.448-3.818   c1.906,4.442,0,13.953,0,13.953c-5.491,5.494-11.609,24.506-11.609,24.506l-2.326,3.396c-2.964,4.232-1.883,10.888,1.061,12.475   C58.136,63.201,59.2,52.402,59.2,52.402C68.279,51.35,75.053,41.21,75.053,41.21C87.291,47.543,79.926,69,74.63,75.868   c-6.804,8.795-6.127,25.998-6.127,25.998c-9.103,3.582-20.711-0.213-20.711-0.213c-14.588-2.34-15.005,6.331-15.005,6.331   c-1.69,10.987-7.184,17.549-7.184,17.549c-3.807,8.015,1.265,17.525,1.265,17.525l1.052,11.413   c1.478,5.297,4.867,3.807,4.867,3.807c9.709-4.87,2.329-17.969,2.329-17.969l-2.547-0.851   c0.434-29.152,15.229-26.622,15.229-26.622c-1.478,1.265-2.754,7.4-2.754,7.4c-0.213,5.296-1.895,10.781-1.895,10.781   c-4.22,6.762-0.848,10.988-0.848,10.988c3.39,2.316,5.497,8.446,5.497,8.446c0.417,6.969,5.071,9.498,5.071,9.498   c5.284,2.968,4.217-8.671,4.217-8.671c0.854-9.492-6.336-8.653-6.336-8.653c1.055-2.335,0.213-7.193,0.213-7.193   c-3.597-14.363,5.695-19.854,5.695-19.854c3.603,7.412,19.236,7.814,19.236,7.814l6.54-6.13   c34.451,30.636,56.002,18.17,56.002,18.17c3.174,3.6,3.28,12.773,3.67,13.306c-10.68,12.814-24.057,25.959-40.932,38.969   c-16.94-13.08-30.36-26.262-41.053-39.094c0.071,0.91,0.071,1.886-0.032,2.92c0.166,1.289,0.508,7.454-2.075,10.291   c-0.461,0.496-0.999,0.887-1.587,1.146c10.92,12.105,24.175,24.412,40.358,36.605l5.109,2.742l3.588-2.701   c17.124-12.908,30.99-25.947,42.263-38.744c20.31-23.082,32.095-45.354,38.804-64.62c5.745-16.506,7.803-30.795,8.311-41.461   C195.44,43.004,194.536,35.923,192.189,33.769z" fill="#12cbc4" data-original="#000000" style="" class=""></path>
</g>
<g xmlns="http://www.w3.org/2000/svg">
</g>
<g xmlns="http://www.w3.org/2000/svg">
</g>
<g xmlns="http://www.w3.org/2000/svg">
</g>
<g xmlns="http://www.w3.org/2000/svg">
</g>
<g xmlns="http://www.w3.org/2000/svg">
</g>
<g xmlns="http://www.w3.org/2000/svg">
</g>
<g xmlns="http://www.w3.org/2000/svg">
</g>
<g xmlns="http://www.w3.org/2000/svg">
</g>
<g xmlns="http://www.w3.org/2000/svg">
</g>
<g xmlns="http://www.w3.org/2000/svg">
</g>
<g xmlns="http://www.w3.org/2000/svg">
</g>
<g xmlns="http://www.w3.org/2000/svg">
</g>
<g xmlns="http://www.w3.org/2000/svg">
</g>
<g xmlns="http://www.w3.org/2000/svg">
</g>
<g xmlns="http://www.w3.org/2000/svg">
</g>
</g></svg>