<svg xmlns="http://www.w3.org/2000/svg" xmlns:xlink="http://www.w3.org/1999/xlink" xmlns:svgjs="http://svgjs.com/svgjs" width="512" height="512" x="0" y="0" viewBox="0 0 300 300" style="enable-background:new 0 0 512 512" xml:space="preserve" class=""><g><g xmlns="http://www.w3.org/2000/svg"><g id="SvgjsG1001"><path d="m256.35 84.56c3.81 2.18 6.08 6.09 6.09 10.48 0 4.39-2.28 8.31-6.09 10.48l-10.25 5.86c2.34 3.32 5.5 8.91 6.81 16.33 3.51 19.9-8.73 37.22-19.77 48.35-1.12 1.83-6.93 11.92-5.67 22.74.61 5.18-1.16 10.27-4.86 13.96l-42.13 42.13c-1.53 1.54-4.02 1.57-5.59.07s-1.65-3.99-.19-5.59l11.84-12.99 18.05-36.64-1.66-3.33c-2.03-4.06-3.11-8.61-3.11-13.16v-9.16l-2.72 1.02.57 1.38c3.43 8.35.32 17.81-7.39 22.5l-30.71 18.68v18.69c0 2.21-1.79 4-4 4s-4-1.79-4-4v-20.93-5.24c0-1.27.61-2.48 1.64-3.23l18.98-13.85-3.08-7.5-4.98 1.87c-3.22 3.05-17.78 16.04-36.92 21.12l-72.57 62.2c-1.57 1.35-3.9 1.28-5.38-.16-.25-.23-.45-.49-.62-.76l-3.79 5.41c-.78 1.11-2.02 1.71-3.28 1.71-.73 0-1.45-.19-2.11-.6-1.8-1.12-2.42-3.45-1.4-5.31l30.93-56.71c.2-7.31 2.54-14.29 6.79-20.27l11.79-16.6v-10.17c0-10.44 3.1-20.52 8.98-29.14l19.91-29.25 1.01-3.02-6.77 5.08c-4.97 3.72-11.8 3.53-16.62-.46-4.98-4.14-6.12-11.62-2.65-17.41l8.95-14.91v-6.75c0-6.13 2.38-11.88 6.71-16.21l6.44-6.45c1.47-1.46 3.11-2.75 4.91-3.84-.84-10.28.51-17.28 4.05-20.81.8-.8 1.9-1.22 3.03-1.16 1.14.06 2.19.59 2.9 1.47.27.33 5.69 7.16 5.53 16.71 2.3.18 4.57.67 6.76 1.46l7.93-8c1.15-1.15 2.87-1.5 4.37-.88s2.47 2.08 2.47 3.7c0 .34-.02 7.54-1.67 14.15 6.41 6.82 10.48 15.9 12.09 27.05.38 1.99 4.23 23.15-2.94 39.4 5.68.13 15.74-1.34 28-10.53 12.78-9.58 27.04-8.72 37.33-5.99l2.39-2.39c.71-.71 1.03-1.68.87-2.67s-.77-1.82-1.67-2.27l-14.33-7.16c-6.49-3.25-9.65-10.89-7.36-17.77 1.89-5.68 6.74-9.81 12.64-10.8l24.21-4.03c1.71-.29 3.42.57 4.21 2.11.8 1.55.5 3.43-.73 4.66l-10.63 10.64c-.45.45-.46.96-.42 1.23.03.27.18.77.73 1.08zm-1.92 10.48c0-.71-.19-2.47-2.05-3.53l-18.15-10.38c-2.59-1.47-4.3-4.01-4.69-6.96-.4-2.95.58-5.85 2.69-7.95l1.81-1.82-11.9 1.99c-2.97.49-5.41 2.57-6.36 5.43-1.04 3.13.39 6.61 3.35 8.08l14.33 7.17c3.22 1.61 5.41 4.58 5.98 8.14.55 3.39-.46 6.72-2.76 9.23 1.17.49 2.19.96 3.03 1.38l12.67-7.24c1.85-1.06 2.05-2.83 2.05-3.54zm-27.27 75.68c14.22-14.21 20.23-28.22 17.87-41.62-1.47-8.29-5.87-13.79-7.08-15.18-3.43-1.87-25.13-12.78-42.19.02-22.36 16.77-39.58 11.31-40.31 11.06-1.18-.39-2.11-1.31-2.52-2.49-.4-1.18-.23-2.48.46-3.52 9.44-14.16 4.69-38.62 4.64-38.87-.02-.07-.03-.14-.04-.22-1.47-10.33-5.31-18.47-11.41-24.2-1.13-1.06-1.55-2.68-1.07-4.16.34-1.03.62-2.13.85-3.23l-1.88 1.89c-1.21 1.23-3.07 1.53-4.61.77-3.13-1.54-6.55-2.14-9.93-1.73-1.23.16-2.47-.28-3.34-1.17-.26 1.2-1.06 2.24-2.21 2.79-1.98.92-3.72 2.14-5.2 3.62l-6.44 6.44c-2.82 2.82-4.37 6.57-4.37 10.56v7.86c0 .72-.2 1.43-.57 2.05l-9.52 15.86c-1.46 2.43-1.07 5.5.89 7.13s4.72 1.72 6.71.22l17.02-12.76c.26-.2.54-.35.83-.47l1.78-1.78c.57.43 4.1 2.75 11.09-.75 1.97-.98 4.38-.18 5.36 1.79.99 1.98.19 4.38-1.79 5.37-4.08 2.04-7.58 2.74-10.47 2.74-.48 0-.95-.02-1.4-.06l-4.44 13.32c-.12.35-.28.69-.49.99l-20.22 29.7c-4.97 7.3-7.59 15.82-7.59 24.65v11.44c0 .83-.26 1.64-.74 2.32l-12.54 17.64c-3.48 4.9-5.32 10.67-5.32 16.68 0 .2-.01.39-.04.58l27.01-31.51c1.4-1.64 3.43-2.62 5.58-2.7.1-.01.2-.01.3-.01 2.04 0 4.03.82 5.48 2.27 2.79 2.8 3.04 7.23.57 10.32l-34.13 42.66 40.97-35.11c.47-.41 1.03-.7 1.63-.85 19.56-4.89 34.63-19.73 34.78-19.88.41-.4.89-.72 1.42-.92l41.88-15.7c1.23-.46 2.6-.29 3.68.46s1.72 1.98 1.72 3.29v14.93c0 3.31.78 6.62 2.26 9.58l2.55 5.1c.56 1.12.57 2.44.01 3.56l-9.63 19.56 13.94-13.95c1.96-1.95 2.9-4.64 2.58-7.38-1.74-14.87 6.77-27.84 7.13-28.39.15-.21.32-.42.5-.61zm-41.04 21.44c4.33-2.63 6.07-7.95 4.15-12.63l-.66-1.61-13.01 4.88 4.18 10.17c.31.75.36 1.55.21 2.31zm-113.6 43.6 27.82-34.77-18.97 22.12z" fill="#ceae7d" data-original="#000000" style=""></path></g></g></g></svg>