<svg xmlns="http://www.w3.org/2000/svg" xmlns:xlink="http://www.w3.org/1999/xlink" xmlns:svgjs="http://svgjs.com/svgjs" width="512" height="512" x="0" y="0" viewBox="0 0 300 300" style="enable-background:new 0 0 512 512" xml:space="preserve" class=""><g><g xmlns="http://www.w3.org/2000/svg"><path d="m256.833 77.035-7.824-15.647-1.082-4.327c-1.079-4.317-3.284-8.225-6.437-11.44l2.409-7.225c.512-1.535.048-3.227-1.174-4.287s-2.962-1.28-4.41-.556c-2.654 1.327-4.907 2.775-6.754 4.324.986-2.331 1.847-4.063 1.859-4.089.986-1.976.186-4.378-1.791-5.365-1.979-.99-4.378-.186-5.365 1.789-.081.163-1.816 3.649-3.313 7.661-.982.013-1.963.078-2.938.208-.523.07-1.052.146-1.583.229-13.096 2.047-25.347 9.053-34.496 19.729l-22.811 26.613c-3.533.616-11.118 2.987-18.415 12.107-7.872 9.841-17.911 16.646-29.031 19.679l-13.168 3.591c-7.026 1.916-13.279 5.91-17.989 11.333l-12.062-.597c-.065-.003-.132-.005-.197-.005-8.688 0-16.618 4.349-21.212 11.633-6.738 10.686-14.671 32.181 7.908 56.091 1.966 2.081 2.194 5.388.544 7.863l-5.42 8.13c-1.094 1.641-.829 3.834.625 5.167.763.699 1.731 1.052 2.704 1.052.882 0 1.766-.291 2.498-.876l16.959-13.567c6.386-5.109 8.058-13.972 3.975-21.075-4.142-7.204-6.988-13.821-8.23-19.138-2.178-9.314 1.048-11.794 2.296-12.636l.743-.424c-.278 4.752.401 9.556 2.066 14.197 2.474 6.892 6.375 13.669 11.606 20.166v17.436l-4.263 4.262c-4.037 4.039-5.352 10.103-3.347 15.451l12.995 34.652c.003.007.01.009.013.015.195.513.491.995.904 1.409l10.261 10.261c.78.781 1.805 1.171 2.828 1.171s2.048-.391 2.828-1.171c1.562-1.562 1.562-4.095 0-5.657l-9.089-9.089v-32.853l19.645-24.557c.13-.162.247-.334.35-.514l1.576-2.758-2.335 9.338c-1.237 4.948.209 10.29 3.773 13.939l30.938 31.671c.038.039.084.066.124.103l5.127 9.229c.731 1.316 2.095 2.058 3.501 2.058.657 0 1.323-.162 1.938-.504 1.932-1.073 2.627-3.508 1.555-5.439l-24.628-44.33 6.55-13.099c2.087-4.174 3.189-8.848 3.189-13.515v-18.263c6.103-.844 13.552-3.812 21.742-11.165 4.931 4.063 15.69 11.616 29.436 13.521l-10.016 19.053h-17.583c-2.209 0-4 1.791-4 4s1.791 4 4 4h20c1.019 0 1.938-.393 2.645-1.02.013-.006.031-.006.041-.015l24.55-22.236c4.168-3.774 5.322-9.923 2.809-14.953l-.19-.381c-1.734-3.467-4.96-5.917-8.853-6.723-3.573-.739-9.015-2.461-15.876-6.442.499-.568 1.017-1.204 1.542-1.901l14.843 1.171c3.013.237 5.834 1.562 7.941 3.73l15.885 16.336-4.361 13.082c-.698 2.096.435 4.361 2.53 5.06.42.14.846.206 1.266.206 1.674 0 3.235-1.06 3.794-2.736l5.13-15.391c.253-.759.272-1.576.056-2.347l-6.272-22.324c-1.917-6.826-7.025-12.388-13.665-14.878l-19.955-7.483c-.12-2.555-.438-5.282-1.001-8.189v-9.744c0-2.32.903-4.501 2.543-6.141l13.979-13.979 12.778 12.778c2.068 2.068 4.818 3.208 7.743 3.208 2.926 0 5.676-1.139 7.743-3.208l1.803-1.803c3.336-3.337 4.161-8.417 2.05-12.64zm-181.943 66.026-6.072 3.465c-.081.046-.159.095-.236.146-6.961 4.641-12.034 15.78 3.324 42.493 2.102 3.656 1.245 8.215-2.037 10.84l-3.286 2.629c-.023-3.521-1.313-7-3.81-9.643-9.896-10.478-19.135-27.021-6.957-46.331 3.103-4.92 8.462-7.869 14.351-7.9l7.193.356c-.581 1.174-1.094 2.366-1.541 3.574-.318.088-.631.201-.929.371zm66.52 51.731-7.493 14.985c-.59 1.181-.56 2.578.081 3.731l5.808 10.455-10.623-10.875c-1.639-1.678-2.304-4.134-1.734-6.409l3.666-14.666c.144-.575.157-1.174.041-1.755l-1.533-7.664c-.022-.113-.068-.214-.099-.322l9.633-16.857c1.261.444 2.809.865 4.599 1.139v18.3c0 3.432-.811 6.869-2.346 9.938zm93.701-53.512 2.013 7.164-6.604-6.791c-3.463-3.562-8.097-5.738-13.048-6.128l-11.128-.878c1.109-2.71 2.012-5.861 2.502-9.477l17.492 6.559c4.263 1.599 7.542 5.169 8.773 9.551zm14.013-57.261-1.804 1.803c-1.113 1.115-3.058 1.115-4.173 0l-15.606-15.606c-1.561-1.562-4.096-1.562-5.656 0l-16.807 16.807c-3.151 3.151-4.887 7.341-4.887 11.798v10.137c0 .263.026.526.078.784 1.897 9.493 1.032 17.725-2.574 24.469-2.681 5.013-5.979 7.327-5.984 7.332-1.113.742-1.781 1.991-1.781 3.328s.668 2.586 1.781 3.328c9.977 6.651 18.016 9.277 23.003 10.309 1.478.306 2.687 1.205 3.317 2.467l.19.38c.916 1.832.496 4.071-1.022 5.445l-7.824 7.087 3.487-6.633c.651-1.24.607-2.73-.117-3.93-.725-1.199-2.023-1.932-3.424-1.932-18.55 0-32.946-14.083-33.085-14.22-.75-.75-1.768-1.171-2.828-1.171s-2.078.421-2.828 1.171c-17.739 17.739-30.375 10.071-30.866 9.761-.923-.615-2.059-.82-3.138-.565s-2.004.946-2.554 1.909l-20.367 35.642-20.326 25.409c-.567.709-.877 1.59-.877 2.499v13.855l-5.25-13.998c-.906-2.418-.312-5.161 1.514-6.986l5.434-5.434c.75-.75 1.172-1.768 1.172-2.829v-20.522c0-.936-.328-1.842-.927-2.561-5.099-6.118-8.85-12.47-11.15-18.878-2.654-7.398-2.104-15.341 1.553-22.364 3.665-7.04 10.159-12.275 17.817-14.364l13.168-3.591c12.765-3.481 24.236-11.227 33.173-22.399 7.189-8.985 13.972-9.312 14.192-9.321 1.168 0 2.277-.51 3.037-1.397l23.823-27.794c7.91-9.229 18.442-15.278 29.658-17.031.471-.074.937-.141 1.401-.203.734-.098 1.475-.146 2.216-.146 2.291 0 4.591.464 6.753 1.374.938.395 1.962.407 2.875.086.128.985.621 1.91 1.42 2.57 2.934 2.422 4.951 5.571 5.834 9.106l1.188 4.753c.071.283.173.558.303.819l8.021 16.041c.569 1.138.346 2.506-.553 3.406z" fill="#ceae7d" data-original="#000000" style=""></path></g></g></svg>