<svg xmlns="http://www.w3.org/2000/svg" xmlns:xlink="http://www.w3.org/1999/xlink" xmlns:svgjs="http://svgjs.com/svgjs" width="512" height="512" x="0" y="0" viewBox="0 0 300 300" style="enable-background:new 0 0 512 512" xml:space="preserve" class=""><g><g xmlns="http://www.w3.org/2000/svg"><path d="m267.376 198.977-6.215-9.322c-5.067-7.602-9.349-21.741-9.349-30.876v-17.36c0-12.651-10.292-22.943-22.942-22.943h-16.692c-3.192-2.352-6.66-3.954-10.103-5.023 4.735-6.207 6.277-14.461 3.667-22.291-1.827-5.48-5.562-10.136-10.517-13.109l-16.197-9.718c-10.254-6.153-21.4-10.462-33.129-12.808l-14.428-2.885c-.484-1.783-1.234-3.504-2.252-5.108l-3.186-5.021c-1.925-3.034-4.916-5.137-8.422-5.921-3.51-.786-7.108-.156-10.141 1.769l-3.026 1.92c-3.034 1.924-5.137 4.915-5.921 8.421-.577 2.581-.383 5.212.525 7.632-4.346-4.533-9.717-8.031-15.73-10.242.454-3.444-.379-6.143-1.321-7.976-3.53-6.875-12.085-9.195-13.049-9.437-1.207-.305-2.489-.027-3.465.75-.975.776-1.532 1.962-1.508 3.208l.1 5.094c-1.34-1.753-3.266-3.454-6.041-4.841-1.975-.988-4.378-.188-5.367 1.789-.987 1.976-.187 4.378 1.789 5.366 3.719 1.859 4.456 4.517 4.575 5.886-4.906 2.948-8.3 8.165-8.708 14.191l-16.44 25.821c-3.623 5.692-2.004 13.367 3.609 17.109 4.292 2.862 9.81 2.814 14.051-.127.146-.101.284-.211.415-.331l17.574-16.009c.347.169.651.427.949.79 3.664 4.466 2.74 19.491.9 28.894-6.073 18.409-3.493 31.882 1.681 41.388l-33.324 7.405c-1.425.317-2.564 1.385-2.973 2.787-.408 1.401-.02 2.914 1.013 3.947l20.02 20.02c-.182.225-.353.46-.483.721l-20.283 40.573c-.013.026-.01.049-.016.074-.601 1.264-.537 2.8.328 4.025l11.729 16.59c.78 1.103 2.016 1.69 3.271 1.69.798 0 1.604-.238 2.306-.733 1.804-1.275 2.231-3.771.957-5.576l-9.955-14.081 22.518-27.021 4.824-1.072 5.363 5.363c.78.781 1.805 1.172 2.828 1.172s2.048-.391 2.828-1.172c1.562-1.562 1.562-4.095 0-5.656l-1.764-1.764 15.382-3.419c10.589-2.354 17.984-11.572 17.984-22.42v-1.181c15.305 1.825 28.518 1.744 39.397-.236.408 1.694.936 3.352 1.524 4.984l-4.748 4.749c-1.312 1.312-1.55 3.353-.574 4.931.744 1.205 2.046 1.897 3.403 1.897.421 0 .847-.066 1.264-.205l5.157-1.719c2.572 4.477 5.52 8.487 8.3 11.838l-8.873 3.155c-1.619.575-2.623 2.088-2.647 3.71-.003.021-.013.035-.013.059v20.851c0 2.209 1.791 4 4 4s4-1.791 4-4v-18.028l9.345-3.323c.886.898 1.679 1.666 2.335 2.285l-9.217 28.221-19.688 23.797c-1.361 1.646-1.189 4.07.39 5.508.765.696 1.729 1.042 2.691 1.042 1.026 0 2.05-.393 2.829-1.172l45.646-45.646c1.071-1.071 1.445-2.655.967-4.093l-4.516-13.547 2.816-5.07c.185-.037.369-.08.552-.145l21.832-7.763c1.333-.474 2.315-1.615 2.586-3.003.271-1.389-.212-2.815-1.269-3.755l-10.414-9.256 10.025-18.047c.027-.051.055-.102.081-.154.576-1.153 1.059-2.339 1.47-3.543v17.049c0 24.001 37.43 31.516 39.022 31.823.254.05.508.073.761.073 1.321 0 2.579-.656 3.33-1.785.893-1.343.892-3.093-.003-4.434zm-92.463-123.783 16.197 9.718c3.317 1.991 5.818 5.109 7.042 8.78 2.423 7.268-.473 15.096-7.042 19.038l-23.564 14.138c-1.381.828-2.13 2.403-1.902 3.996l5.359 37.513-16.23-37.873c-1.768-4.123-.859-8.836 2.312-12.008l7.854-7.853c1.194-1.194 1.51-3.009.789-4.536s-2.324-2.442-4.003-2.274l-22.925 2.219 8.594-5.157c1.209-.726 1.944-2.036 1.939-3.445s-.755-2.715-1.968-3.432c-.175-.103-17.379-10.441-11.656-21.887.562-1.126.562-2.451 0-3.578l-3.55-7.1c-.107-.214-.237-.407-.375-.592l12.547 2.509c10.827 2.166 21.116 6.144 30.582 11.824zm-2.246 104.827-3.243 1.081 2.973-2.973zm-21.658-66.731h-3.951l4.339-.42c-.135.136-.258.281-.388.42zm-23.603-43.453.31.62c-4.15 10.92 3.165 20.806 10.313 26.728l-15.86 9.516c-.7-.895-1.147-1.995-1.251-3.186-.853-9.744-3.505-18.267-6.956-25.56.235.042.471.078.707.078.753 0 1.497-.213 2.143-.623l6.672-4.233c1.478-.939 2.787-2.069 3.922-3.34zm-18.675-22.803 3.027-1.92c.884-.561 1.886-.85 2.908-.85.399 0 .801.044 1.2.134 1.421.317 2.633 1.169 3.412 2.398l3.186 5.022c1.515 2.386 2.009 5.22 1.392 7.978s-2.271 5.111-4.657 6.625l-3.295 2.09-8.854-13.956c-1.611-2.537-.856-5.911 1.681-7.521zm-44.347 140.051-9.786-9.786h24.062zm17.896-17.786h-24.725l20.365-4.525c1.431 1.705 2.909 3.207 4.36 4.525zm79.868 3.109c-.15-1.123-.77-2.128-1.704-2.769-.934-.64-2.095-.853-3.197-.589-11.629 2.801-26.794 2.924-45.077.366-1.153-.161-2.307.184-3.18.943s-1.375 1.86-1.375 3.018v5.733c0 7.069-4.819 13.077-11.721 14.611l-30.793 6.844c-.863.191-1.639.664-2.205 1.344l-3.297 3.957 4.413-8.827 31.403-21.527c1.146-.786 1.803-2.111 1.733-3.499s-.854-2.641-2.073-3.309c-8.323-4.559-26.546-18.572-16.021-50.149.053-.157.095-.317.127-.48.053-.261 1.282-6.471 1.694-13.779.598-10.617-.777-17.81-4.205-21.991-2.132-2.601-5.038-3.976-8.403-3.976-.996 0-1.957.372-2.693 1.043l-18.774 17.102c-1.5.933-3.387.91-4.868-.078-2.02-1.347-2.603-4.109-1.299-6.157l17.024-26.738c.409-.642.626-1.387.626-2.148 0-5.505 4.479-9.984 9.984-9.984 1.074 0 2.104-.432 2.856-1.2.752-.767 1.164-1.805 1.143-2.879l-.166-8.476c1.143.796 2.181 1.783 2.782 2.956.791 1.54.758 3.345-.1 5.519-.419 1.061-.364 2.25.148 3.268.513 1.018 1.437 1.769 2.538 2.064 6.236 1.67 11.783 4.949 16.04 9.482 7.926 8.44 17.732 22.597 19.44 42.109.484 5.557 4.195 10.28 9.454 12.033l8.39 2.796c4.478 1.493 9.141 2.25 13.86 2.25h1.869c-1.082 4.008-.825 8.348.897 12.365l17.441 40.696-1.946 1.946c-.326-1.286-.59-2.583-.765-3.89zm50.587 16.329-7.491 2.664 3.467-6.241zm2.942-32.595-26.939 48.498c-.544.98-.652 2.144-.298 3.207l4.291 12.871-13.947 13.946 7.11-21.768c.503-1.541.024-3.234-1.208-4.286-.135-.115-9.211-7.961-15.871-18.873l9.549-3.183c1.834-.611 2.969-2.447 2.695-4.36l-7.12-49.833 20.703-12.421c13.282 2.041 21.007 10.272 22.953 24.48.55 4.024-.113 8.076-1.918 11.722zm32.23 35.375c-10.378-5.05-15.641-11.179-15.641-18.218v-35.06c0-4.491-1.854-8.72-4.973-11.763h1.577c8.239 0 14.942 6.703 14.942 14.943v17.36c0 10.808 4.696 26.319 10.692 35.313l.176.264c-2.145-.774-4.461-1.714-6.773-2.839z" fill="#ceae7d" data-original="#000000" style="" class=""></path><path d="m155.68 93.68c.559 1.676 2.119 2.736 3.794 2.736.42 0 .847-.066 1.266-.206 2.096-.699 3.229-2.964 2.53-5.06l-4.859-14.578c-.698-2.096-2.969-3.225-5.06-2.53-2.096.699-3.229 2.964-2.53 5.06z" fill="#ceae7d" data-original="#000000" style="" class=""></path></g></g></svg>