<svg xmlns="http://www.w3.org/2000/svg" xmlns:xlink="http://www.w3.org/1999/xlink" xmlns:svgjs="http://svgjs.com/svgjs" width="512" height="512" x="0" y="0" viewBox="0 0 300 300" style="enable-background:new 0 0 512 512" xml:space="preserve" class=""><g><g xmlns="http://www.w3.org/2000/svg"><path d="m254.553 54.928c-4.61-5.652-14.824-3.247-19.394-1.795l1.372-9.604c.474-3.32-1.101-6.549-4.011-8.227-2.888-1.663-6.436-1.409-9.045.645-12.54 9.874-48.379 31.28-110.21 16.821-.56-.131-11.804-2.748-16.061-3.907-3.354-.914-6.25-1.703-8.645-2.239-4.516-1.012-9.115.149-12.615 3.186-3.536 3.069-5.351 7.514-4.979 12.196.37 4.652 1.877 9.292 4.477 13.792-.483 1.87-.666 3.83-.5 5.811.233 2.795 1.131 5.437 2.56 7.751-15.44 12.044-26.006 27.263-31.432 45.291-7.695 25.568 1.913 53.012 23.366 66.737 12.301 7.87 28.18 13.222 47.403 16.002v30.404c0 9.925 8.075 18 18 18s18-8.075 18-18v-28.801c8.821-1.465 16.909-5.644 23.315-12.177 8.261-8.424 12.55-19.559 12.078-31.353l-1.255-31.379 15.245 15.245c1.511 1.511 3.521 2.343 5.657 2.343s4.146-.832 5.656-2.343l2.904-2.903c3.118-3.119 3.118-8.194-.001-11.313l-32.024-32.024c42.615-11.035 59.118-25.035 65.409-35.032 4.411-7.012 9.699-17.034 4.73-23.127zm-92.678 10.298c26.512-1.363 48.902-9.099 66.573-23.021.027.001.104.032.149.088.017.02.024.029.014.104l-2.065 14.458c-1.243 8.701-7.903 15.689-16.572 17.391-25.134 4.934-71.736 10.701-101.451-6.096-1.652-.934-2.441-2.951-1.877-4.795.528-1.727 2.107-2.866 3.824-2.896 1.735.376 3.483.727 5.223 1.034h.006c10.362 2.145 27.307 4.703 46.176 3.733zm-25.074 32.179c.781-.36 1.568-.746 2.357-1.146l13.235 13.235c-5.243-.242-10.461-1.026-15.553-2.331v-9.373c0-.132-.027-.256-.039-.385zm-7.961 7.243c-1.427-.537-2.839-1.116-4.233-1.739-.645-.288-1.271-.583-1.906-.874 2.01-.398 4.054-.903 6.14-1.554v4.167zm-41.029-16.147c-2.843-1.583-4.628-4.339-4.896-7.561-.266-3.183 1.017-6.155 3.518-8.156l12.125-9.7c-.578 4.785 1.755 9.614 6.027 12.029 10.701 6.049 23.288 9.395 36.279 10.993-13.849 8.48-32.576 13.796-53.053 2.395zm-6.622-32.653c1.56-1.354 3.61-1.873 5.623-1.421 2.001.448 4.513 1.124 7.38 1.904l-12.758 10.206c-.382.306-.743.63-1.095.963-.763-2.049-1.238-4.099-1.399-6.132-.168-2.121.652-4.134 2.249-5.52zm53.651 201.942c-5.514 0-10-4.486-10-10v-29.431c6.339.656 12.987 1.073 19.977 1.215h.023v28.216c0 5.514-4.487 10-10 10zm45.399-82.011c.383 9.567-3.096 18.599-9.796 25.432-6.748 6.882-15.771 10.57-25.463 10.365-21.098-.431-50.581-3.718-71.233-16.931-18.455-11.808-26.687-35.532-20.017-57.693 5.028-16.702 14.948-30.776 29.484-41.884.232.144.464.287.704.421 6.203 3.454 13.846 6.416 22.623 7.323.073.047.135.105.212.147 4.483 2.492 9.393 4.932 14.59 7.254 2.452 1.095 4.956 2.065 7.496 2.92v28.996c-11.335 1.911-20 11.79-20 23.66v28c0 2.209 1.791 4 4 4h40c2.209 0 4-1.791 4-4v-28c0-11.871-8.665-21.75-20-23.66v-26.732c6.254 1.444 12.661 2.186 19.071 2.186 1.481 0 2.962-.05 4.441-.129l18.285 18.285zm-31.399 2.011h-32v-12c0-8.822 7.178-16 16-16s16 7.178 16 16zm-32 8h32v4h-32zm91.04-32.122-61.542-61.542c1.148-.738 2.303-1.513 3.466-2.339l60.979 60.978zm35.173-79.876c-8.082 12.845-31.233 24.443-65.228 32.702l-19.209-19.208c.973.014 1.947.028 2.916.028 18.982 0 37.173-2.703 49.982-5.217 10.632-2.087 19.07-9.931 22.061-20.078.788-.223 1.57-.45 2.329-.685.074-.023.148-.049.222-.076 5.89-2.211 11.391-2.295 12.227-1.271.02.021 1.716 2.654-5.3 13.805z" fill="#ceae7d" data-original="#000000" style="" class=""></path><circle cx="134.84" cy="231.79" r="3.012" fill="#ceae7d" data-original="#000000" style="" class=""></circle><path d="m134.84 244.778c-1.663 0-3.012 1.349-3.012 3.012s1.348 3.012 3.012 3.012 3.012-1.349 3.012-3.012c0-1.664-1.349-3.012-3.012-3.012z" fill="#ceae7d" data-original="#000000" style="" class=""></path></g></g></svg>